<?xml version="1.0" standalone="no"?>
<!DOCTYPE svg PUBLIC "-//W3C//DTD SVG 20010904//EN"
 "http://www.w3.org/TR/2001/REC-SVG-20010904/DTD/svg10.dtd">
<svg version="1.0" xmlns="http://www.w3.org/2000/svg"
 width="225.000000pt" height="225.000000pt" viewBox="0 0 225.000000 225.000000"
 preserveAspectRatio="xMidYMid meet">
<metadata>
Created by potrace 1.14, written by Peter Selinger 2001-2017
</metadata>
<g transform="translate(0.000000,225.000000) scale(0.100000,-0.100000)"
fill="#000000" stroke="none">
<path d="M1030 1730 c-41 -16 -235 -90 -430 -164 l-355 -135 874 -1 c481 0
872 2 870 4 -9 8 -859 326 -871 325 -7 0 -47 -13 -88 -29z"/>
<path d="M1154 1381 c-71 -43 -114 -151 -114 -286 0 -83 25 -192 53 -225 30
-38 71 -60 110 -60 34 0 46 6 79 40 27 30 38 49 38 72 l0 32 -29 -46 c-43 -68
-100 -77 -133 -21 -50 85 -50 339 0 425 23 39 59 53 88 33 28 -18 43 -45 60
-105 12 -43 12 -41 12 60 -1 58 -3 95 -5 83 -5 -28 -13 -28 -60 -3 -47 25 -60
25 -99 1z"/>
<path d="M268 1364 c22 -15 22 -18 22 -266 0 -241 -1 -250 -20 -255 -45 -12
-15 -23 60 -23 75 0 105 11 60 23 -32 8 -25 65 28 218 l47 138 3 -157 c3 -171
-1 -202 -23 -202 -8 0 -15 -4 -15 -10 0 -6 33 -10 80 -10 47 0 80 4 80 10 0 6
-7 10 -15 10 -28 0 -35 50 -35 254 0 231 4 260 34 274 16 8 0 11 -69 11 -72 0
-86 -2 -67 -11 41 -20 39 -52 -16 -213 l-50 -150 -1 172 c-1 167 0 172 21 187
21 15 17 16 -62 16 -79 0 -83 -1 -62 -16z"/>
<path d="M618 1364 c22 -15 22 -18 22 -259 0 -234 -1 -245 -20 -257 -33 -21
-23 -28 35 -28 30 0 55 5 55 10 0 6 -7 10 -15 10 -9 0 -20 12 -25 26 -10 24
-15 442 -6 433 3 -2 28 -106 56 -229 28 -124 53 -232 56 -240 4 -8 30 91 60
220 29 129 55 242 58 250 2 8 4 -85 5 -207 1 -211 0 -224 -19 -243 -11 -11
-20 -22 -20 -25 0 -3 34 -5 75 -5 77 0 90 6 55 28 -19 12 -20 23 -20 252 0
233 1 240 22 260 l22 20 -62 0 -61 0 -10 -37 c-5 -21 -22 -94 -36 -163 -15
-69 -30 -128 -34 -132 -4 -5 -17 38 -30 95 -13 56 -30 132 -38 170 l-15 67
-66 0 c-63 0 -65 -1 -44 -16z"/>
<path d="M1365 1368 c11 -6 23 -16 27 -22 11 -16 9 -451 -2 -480 -5 -14 -16
-26 -25 -26 -8 0 -15 -4 -15 -10 0 -6 35 -10 85 -10 50 0 85 4 85 10 0 6 -9
10 -20 10 -39 0 -35 54 19 210 l50 145 0 -173 c1 -166 0 -174 -19 -179 -45
-12 -15 -23 60 -23 47 0 80 4 80 10 0 6 -6 10 -14 10 -8 0 -17 7 -20 16 -3 9
-6 123 -6 254 0 235 0 238 23 253 21 15 17 16 -61 16 -53 1 -81 -3 -77 -9 3
-5 13 -10 21 -10 29 0 16 -83 -35 -227 l-50 -138 0 170 c-1 94 3 175 7 181 4
6 16 16 27 22 16 9 2 11 -70 11 -72 0 -86 -2 -70 -11z"/>
<path d="M1710 1305 c0 -80 14 -101 23 -34 6 45 31 79 59 79 17 0 18 -14 18
-251 0 -242 -1 -251 -20 -256 -45 -12 -15 -23 60 -23 75 0 105 11 60 23 -19 5
-20 14 -20 256 0 237 1 251 18 251 28 0 53 -34 59 -79 9 -67 23 -46 23 34 l0
75 -140 0 -140 0 0 -75z"/>
<path d="M270 755 l0 -25 855 0 855 0 0 25 0 25 -855 0 -855 0 0 -25z"/>
<path d="M210 635 l0 -25 915 0 915 0 0 25 0 25 -915 0 -915 0 0 -25z"/>
<path d="M134 535 c-4 -8 -4 -22 0 -30 5 -13 124 -15 991 -15 l985 0 0 30 0
30 -985 0 c-870 0 -986 -2 -991 -15z"/>
</g>
</svg>
